<svg width="558" height="71" viewBox="0 0 558 71" fill="none" xmlns="http://www.w3.org/2000/svg">
<path d="M535.619 63.207L549.729 24.6949H557.78L539.935 70.179H531.137L513.292 24.6949H521.426L535.619 63.207Z" fill="#B20000"/>
<path d="M489.583 70.9259C485.322 70.9259 481.449 69.9576 477.963 68.0209C474.532 66.0843 471.821 63.3453 469.829 59.8039C467.892 56.2073 466.924 52.0573 466.924 47.3539C466.924 42.7059 467.92 38.6113 469.912 35.0699C471.959 31.4733 474.726 28.7343 478.212 26.8529C481.698 24.9163 485.599 23.9479 489.915 23.9479C494.231 23.9479 498.132 24.9163 501.618 26.8529C505.104 28.7343 507.843 31.4456 509.835 34.9869C511.882 38.5283 512.906 42.6506 512.906 47.3539C512.906 52.0573 511.854 56.2073 509.752 59.8039C507.704 63.3453 504.91 66.0843 501.369 68.0209C497.827 69.9576 493.899 70.9259 489.583 70.9259ZM489.583 64.2859C492.294 64.2859 494.839 63.6496 497.219 62.3769C499.598 61.1043 501.507 59.1953 502.946 56.6499C504.44 54.1046 505.187 51.0059 505.187 47.3539C505.187 43.7019 504.467 40.6033 503.029 38.0579C501.59 35.5126 499.709 33.6313 497.385 32.4139C495.061 31.1413 492.543 30.5049 489.832 30.5049C487.065 30.5049 484.52 31.1413 482.196 32.4139C479.927 33.6313 478.101 35.5126 476.718 38.0579C475.334 40.6033 474.643 43.7019 474.643 47.3539C474.643 51.0613 475.307 54.1876 476.635 56.7329C478.018 59.2783 479.844 61.1873 482.113 62.4599C484.381 63.6773 486.871 64.2859 489.583 64.2859Z" fill="#B20000"/>
<path d="M442.966 23.8649C448.499 23.8649 452.981 25.5526 456.412 28.9279C459.843 32.2479 461.558 37.0619 461.558 43.3699V70.1789H454.088V44.4489C454.088 39.9116 452.954 36.4533 450.685 34.0739C448.416 31.6393 445.318 30.4219 441.389 30.4219C437.405 30.4219 434.223 31.6669 431.844 34.1569C429.52 36.6469 428.358 40.2713 428.358 45.0299V70.1789H420.805V24.6949H428.358V31.1689C429.852 28.8449 431.872 27.0466 434.417 25.7739C437.018 24.5013 439.867 23.8649 442.966 23.8649Z" fill="#B20000"/>
<path d="M414.985 45.6939C414.985 47.1326 414.902 48.6543 414.736 50.2589H378.382C378.659 54.7409 380.18 58.2546 382.947 60.7999C385.769 63.2899 389.172 64.5349 393.156 64.5349C396.421 64.5349 399.132 63.7879 401.29 62.2939C403.503 60.7446 405.053 58.6973 405.938 56.1519H414.072C412.855 60.5233 410.42 64.0923 406.768 66.8589C403.116 69.5703 398.579 70.9259 393.156 70.9259C388.84 70.9259 384.967 69.9576 381.536 68.0209C378.161 66.0843 375.505 63.3453 373.568 59.8039C371.631 56.2073 370.663 52.0573 370.663 47.3539C370.663 42.6506 371.604 38.5283 373.485 34.9869C375.366 31.4456 377.995 28.7343 381.37 26.8529C384.801 24.9163 388.729 23.9479 393.156 23.9479C397.472 23.9479 401.29 24.8886 404.61 26.7699C407.93 28.6513 410.475 31.2519 412.246 34.5719C414.072 37.8366 414.985 41.5439 414.985 45.6939ZM407.183 44.1169C407.183 41.2396 406.547 38.7773 405.274 36.7299C404.001 34.6273 402.258 33.0503 400.045 31.9989C397.887 30.8923 395.48 30.3389 392.824 30.3389C389.006 30.3389 385.741 31.5563 383.03 33.9909C380.374 36.4256 378.852 39.8009 378.465 44.1169H407.183Z" fill="#B20000"/>
<path d="M357.599 70.1789L343.821 46.5239H334.691V70.1789H327.138V12.3279H345.813C350.184 12.3279 353.864 13.0749 356.852 14.5689C359.895 16.0629 362.164 18.0826 363.658 20.6279C365.152 23.1733 365.899 26.0783 365.899 29.3429C365.899 33.3269 364.737 36.8406 362.413 39.8839C360.144 42.9273 356.714 44.9469 352.121 45.9429L366.646 70.1789H357.599ZM334.691 40.4649H345.813C349.908 40.4649 352.979 39.4689 355.026 37.4769C357.073 35.4296 358.097 32.7183 358.097 29.3429C358.097 25.9123 357.073 23.2563 355.026 21.3749C353.034 19.4936 349.963 18.5529 345.813 18.5529H334.691V40.4649Z" fill="#B20000"/>
<path d="M274.312 30.92V57.729C274.312 59.9423 274.782 61.5193 275.723 62.46C276.664 63.3453 278.296 63.788 280.62 63.788H286.181V70.179H279.375C275.17 70.179 272.016 69.2106 269.913 67.274C267.81 65.3373 266.759 62.1556 266.759 57.729V30.92H260.866V24.695H266.759V13.241H274.312V24.695H286.181V30.92H274.312Z" fill="#B20000"/>
<path d="M256.376 8.75897V70.179H248.823V8.75897H256.376Z" fill="#B20000"/>
<path d="M240.22 24.6949V70.179H232.667V63.456C231.229 65.78 229.209 67.6059 226.608 68.9339C224.063 70.2066 221.241 70.843 218.142 70.843C214.601 70.843 211.419 70.1236 208.597 68.6849C205.775 67.1909 203.534 64.9776 201.874 62.0449C200.269 59.1123 199.467 55.5433 199.467 51.3379V24.6949H206.937V50.342C206.937 54.824 208.071 58.2823 210.34 60.717C212.609 63.0963 215.708 64.286 219.636 64.286C223.676 64.286 226.857 63.041 229.181 60.551C231.505 58.061 232.667 54.4366 232.667 49.678V24.6949H240.22Z" fill="#B20000"/>
<path d="M176.77 70.9259C173.284 70.9259 170.158 70.3449 167.391 69.1829C164.624 67.9656 162.439 66.3056 160.834 64.2029C159.229 62.0449 158.344 59.5826 158.178 56.8159H165.98C166.201 59.0846 167.253 60.9383 169.134 62.3769C171.071 63.8156 173.588 64.5349 176.687 64.5349C179.564 64.5349 181.833 63.8986 183.493 62.6259C185.153 61.3533 185.983 59.7486 185.983 57.8119C185.983 55.8199 185.098 54.3536 183.327 53.4129C181.556 52.4169 178.817 51.4486 175.11 50.5079C171.735 49.6226 168.968 48.7373 166.81 47.8519C164.707 46.9113 162.881 45.5556 161.332 43.7849C159.838 41.9589 159.091 39.5796 159.091 36.6469C159.091 34.3229 159.783 32.1926 161.166 30.2559C162.549 28.3193 164.514 26.7976 167.059 25.6909C169.604 24.5289 172.509 23.9479 175.774 23.9479C180.809 23.9479 184.876 25.2206 187.975 27.7659C191.074 30.3113 192.734 33.7973 192.955 38.2239H185.402C185.236 35.8446 184.268 33.9356 182.497 32.4969C180.782 31.0583 178.458 30.3389 175.525 30.3389C172.814 30.3389 170.656 30.9199 169.051 32.0819C167.446 33.2439 166.644 34.7656 166.644 36.6469C166.644 38.1409 167.114 39.3859 168.055 40.3819C169.051 41.3226 170.268 42.0973 171.707 42.7059C173.201 43.2593 175.248 43.8956 177.849 44.6149C181.114 45.5003 183.77 46.3856 185.817 47.2709C187.864 48.1009 189.607 49.3736 191.046 51.0889C192.54 52.8043 193.315 55.0453 193.37 57.8119C193.37 60.3019 192.678 62.5429 191.295 64.5349C189.912 66.5269 187.947 68.1039 185.402 69.2659C182.912 70.3726 180.035 70.9259 176.77 70.9259Z" fill="#B20000"/>
<path d="M133.888 23.8649C139.422 23.8649 143.904 25.5526 147.334 28.9279C150.765 32.2479 152.48 37.0619 152.48 43.3699V70.1789H145.01V44.4489C145.01 39.9116 143.876 36.4533 141.607 34.0739C139.339 31.6393 136.24 30.4219 132.311 30.4219C128.327 30.4219 125.146 31.6669 122.766 34.1569C120.442 36.6469 119.28 40.2713 119.28 45.0299V70.1789H111.727V24.6949H119.28V31.1689C120.774 28.8449 122.794 27.0466 125.339 25.7739C127.94 24.5013 130.79 23.8649 133.888 23.8649Z" fill="#B20000"/>
<path d="M82.6234 70.9259C78.3627 70.9259 74.4894 69.9576 71.0034 68.0209C67.5727 66.0843 64.8614 63.3453 62.8694 59.8039C60.9327 56.2073 59.9644 52.0573 59.9644 47.3539C59.9644 42.7059 60.9604 38.6113 62.9524 35.0699C64.9997 31.4733 67.7664 28.7343 71.2524 26.8529C74.7384 24.9163 78.6394 23.9479 82.9554 23.9479C87.2714 23.9479 91.1724 24.9163 94.6584 26.8529C98.1444 28.7343 100.883 31.4456 102.875 34.9869C104.923 38.5283 105.946 42.6506 105.946 47.3539C105.946 52.0573 104.895 56.2073 102.792 59.8039C100.745 63.3453 97.9507 66.0843 94.4094 68.0209C90.868 69.9576 86.9394 70.9259 82.6234 70.9259ZM82.6234 64.2859C85.3347 64.2859 87.88 63.6496 90.2594 62.3769C92.6387 61.1043 94.5477 59.1953 95.9864 56.6499C97.4804 54.1046 98.2274 51.0059 98.2274 47.3539C98.2274 43.7019 97.508 40.6033 96.0694 38.0579C94.6307 35.5126 92.7494 33.6313 90.4254 32.4139C88.1014 31.1413 85.5837 30.5049 82.8724 30.5049C80.1057 30.5049 77.5604 31.1413 75.2364 32.4139C72.9677 33.6313 71.1417 35.5126 69.7584 38.0579C68.375 40.6033 67.6834 43.7019 67.6834 47.3539C67.6834 51.0613 68.3474 54.1876 69.6754 56.7329C71.0587 59.2783 72.8847 61.1873 75.1534 62.4599C77.422 63.6773 79.912 64.2859 82.6234 64.2859Z" fill="#B20000"/>
<path d="M0 41.212C0 35.568 1.27267 30.505 3.818 26.023C6.36333 21.4857 9.82167 17.9443 14.193 15.399C18.6197 12.8537 23.5167 11.581 28.884 11.581C35.192 11.581 40.6977 13.1027 45.401 16.146C50.1043 19.1893 53.535 23.5053 55.693 29.094H46.646C45.0413 25.608 42.7173 22.9243 39.674 21.043C36.686 19.1617 33.0893 18.221 28.884 18.221C24.8447 18.221 21.2203 19.1617 18.011 21.043C14.8017 22.9243 12.284 25.608 10.458 29.094C8.632 32.5247 7.719 36.564 7.719 41.212C7.719 45.8047 8.632 49.844 10.458 53.33C12.284 56.7607 14.8017 59.4167 18.011 61.298C21.2203 63.1793 24.8447 64.12 28.884 64.12C33.0893 64.12 36.686 63.207 39.674 61.381C42.7173 59.4997 45.0413 56.816 46.646 53.33H55.693C53.535 58.8633 50.1043 63.1517 45.401 66.195C40.6977 69.183 35.192 70.677 28.884 70.677C23.5167 70.677 18.6197 69.432 14.193 66.942C9.82167 64.3967 6.36333 60.883 3.818 56.401C1.27267 51.919 0 46.856 0 41.212Z" fill="#B20000"/>
<path d="M307.756 5.727C307.368 6.557 307.175 7.35934 307.175 8.134C307.175 8.90867 307.23 9.57267 307.341 10.126C307.507 10.6793 307.756 11.3157 308.088 12.035C308.53 13.1417 308.752 14.027 308.752 14.691C308.752 15.521 308.447 16.2127 307.839 16.766C307.23 17.264 306.483 17.513 305.598 17.513C304.546 17.513 303.716 16.9873 303.108 15.936C302.554 14.8293 302.278 13.5843 302.278 12.201C302.278 8.16167 303.772 4.28833 306.76 0.581002C307.092 0.193667 307.424 0 307.756 0C308.088 0 308.558 0.221334 309.167 0.664001C309.775 1.10667 310.08 1.494 310.08 1.826C310.08 2.158 309.941 2.46233 309.665 2.739C308.779 3.901 308.143 4.897 307.756 5.727Z" fill="#B20000"/>
</svg>
