<svg width="680" height="352" viewBox="0 0 680 352" fill="none" xmlns="http://www.w3.org/2000/svg">
<path d="M331.667 3.53794C336.364 -1.21368 343.61 -1.15095 348.352 3.5565C365.952 21.0321 383.501 38.5586 400.999 56.1356C417.587 72.798 434.128 89.5071 450.624 106.261C450.722 96.2974 450.833 86.3342 450.954 76.3709C451.03 70.1229 455.752 65.2489 462 65.3251C482 65.5688 502 65.859 522 66.1961C527.755 66.2932 532.272 70.6163 532.175 76.3709C531.576 111.89 530.827 147.41 529.934 182.93C568.018 225.054 605.832 267.437 643.371 310.081C655.61 323.983 667.819 337.913 680 351.871C666.66 339.016 653.35 326.134 640.068 313.224C598.531 272.85 557.277 232.205 516.306 191.291C515.252 190.239 514.176 187.36 514.139 185.871C513.3 152.817 512.589 119.762 512.005 86.7079C499.061 86.916 486.116 87.1052 473.172 87.2743C473.35 102.99 473.502 118.705 473.622 134.421C473.679 146.06 462.016 150.828 453.764 142.62C430.417 119.525 407.159 96.341 383.99 73.0682C369.252 58.2636 354.552 43.4213 339.886 28.5448C241.783 125.339 142.112 220.564 40.873 314.222C27.2769 326.799 13.6528 339.35 0 351.871C12.5214 338.218 25.0715 324.594 37.6494 310.998C133.996 206.852 232.001 104.365 331.667 3.53794Z" fill="#0047AB"/>
<path d="M335.758 67.6287C338.158 65.2287 341.842 65.2287 344.242 67.6287C428.242 151.629 511.097 236.774 592.806 323.065C601.884 332.653 610.949 342.255 620 351.871C610.384 342.82 600.782 333.755 591.194 324.677C506.355 244.342 422.624 162.9 340 80.3514C257.375 162.9 173.645 244.342 88.8057 324.677C79.2178 333.755 69.6162 342.82 60 351.871C69.0505 342.255 78.1156 332.653 87.1943 323.065C168.903 236.774 251.758 151.629 335.758 67.6287Z" fill="#0047AB"/>
<path d="M342 291.871H402V351.871H342V291.871Z" fill="#0047AB"/>
<path d="M342 221.871H402V281.871H342V221.871Z" fill="#0047AB"/>
<path d="M274 221.871H334V281.871H274V221.871Z" fill="#0047AB"/>
<path d="M274 291.871H334V351.871H274V291.871Z" fill="#0047AB"/>
</svg>
